<?xml version="1.0" encoding="utf-8"?>
<!-- Generator: Adobe Illustrator 26.2.1, SVG Export Plug-In . SVG Version: 6.00 Build 0)  -->
<svg version="1.2" baseProfile="tiny" id="katman_1"
	 xmlns="http://www.w3.org/2000/svg" xmlns:xlink="http://www.w3.org/1999/xlink" x="0px" y="0px" viewBox="0 0 476 476"
	 overflow="visible" xml:space="preserve">
<g id="KTÜ_Amblem_001">
	<path fill="#014269" d="M474.5,238c0.1,95.3-56.6,181.5-143.9,219c-21.6,9.3-44.4,15.2-67.7,17.7V238h68v142.1
		c88-58.1,104.6-184,25.9-263.4c-47.6-47.6-118.9-62.3-181.3-37.2C72,121.3,37.5,243.4,95.5,331.6c12.7,19.3,29.2,35.8,48.5,48.5
		V238h68v236.8c-23.4-2.5-46.1-8.5-67.7-17.7C44.8,414.3-19.7,305.3,6,185.2C25.7,93.6,98,22.7,189.7,4.7
		C341.5-25,474.5,90.8,474.5,238z"/>
	<circle fill="none" cx="238" cy="238" r="238.1"/>
</g>
</svg>
