<?xml version="1.0" encoding="utf-8"?>
<!-- Generator: Adobe Illustrator 26.2.1, SVG Export Plug-In . SVG Version: 6.00 Build 0)  -->
<svg version="1.2" baseProfile="tiny" id="katman_1"
	 xmlns="http://www.w3.org/2000/svg" xmlns:xlink="http://www.w3.org/1999/xlink" x="0px" y="0px" viewBox="0 0 1060.6 476.5"
	 overflow="visible" xml:space="preserve">
<g id="katman_2_00000023972138094436747370000004708760634081062589_">
	<g id="katman_1-2">
		<g id="Text_Karadeniz_Teknik_Üniversitesi_001">
			<path fill="#97999B" d="M719,339.6v-23.1h4v10.7l8.8-10.7h4.5l-9.3,11.2l9.7,11.8h-4.8l-8.7-10.8v10.8L719,339.6z"/>
			<path fill="#97999B" d="M737.5,340.5l11.6-25.2l11.6,25.2h-4.5l-2.1-5H744l-2,5H737.5z M745.6,331.5h6.9l-3.5-7.6L745.6,331.5z"
				/>
			<path fill="#97999B" d="M764,340.5v-24h9.3c2.1-0.1,4.1,0.8,5.5,2.2c1.5,1.4,2.3,3.4,2.2,5.4c0.1,3-1.7,5.7-4.4,6.8l5.8,9.5H777
				l-4.9-9H768v9H764z M768.9,328.5h4.3c2,0,3.7-1.6,3.8-3.7v-0.4c0.2-1.9-1.2-3.7-3.2-3.9H769L768.9,328.5z"/>
			<path fill="#97999B" d="M782.6,340.5l11.6-25.2l11.6,25.2h-4.5l-2.1-5h-10.1l-2.1,5H782.6z M790.7,331.5h6.9l-3.5-7.6
				L790.7,331.5z"/>
			<path fill="#97999B" d="M810,340.5v-24h8.6c4,0,7.1,1.1,9.2,3.4c4.4,5,4.4,12.4,0,17.4c-2.5,2.3-5.8,3.4-9.2,3.3L810,340.5z
				 M814,336.5h3.9c5.8,0,8.5-3.1,8.5-8s-2.5-8-8.5-8H814V336.5z"/>
			<path fill="#97999B" d="M834,339.6v-23.1h15v3h-11v6h10v4h-10v6h11v4L834,339.6z"/>
			<path fill="#97999B" d="M854,339.4v-23.7l16,15.7v-14.9h4v24.3l-16-15.6v14.1L854,339.4z"/>
			<path fill="#97999B" d="M878.6,312.4c0-1.2,0.9-2.2,2.1-2.2c0.2,0,0.3,0,0.5,0c1.3,0.3,2.1,1.6,1.6,3c-0.3,0.8-1.1,1.2-1.9,1.2
				h-0.1C879.5,314.5,878.6,313.6,878.6,312.4L878.6,312.4z M879,340.5v-24h4v24H879z"/>
			<path fill="#97999B" d="M886.6,340.5l13-20H889v-4h17.5l-12.9,20H906v4H886.6z"/>
			<path fill="#97999B" d="M724,380.2v-19.7h-7v-4h17v4h-6v19.6L724,380.2z"/>
			<path fill="#97999B" d="M738,380.5v-24h14v4h-10v6h10v3h-10v7h11v4H738z"/>
			<path fill="#97999B" d="M757,380.6v-23.1h4v10.7l8.8-10.7h4.5l-9.3,11.2l9.7,11.8h-4.8l-8.7-10.8v10.8L757,380.6z"/>
			<path fill="#97999B" d="M779,380.5v-23.9l16,15.4v-14.5h4v23.9l-16-15.3v14.4H779z"/>
			<path fill="#97999B" d="M803.7,353.4c0-1.2,0.9-2.2,2.1-2.2c0.2,0,0.3,0,0.5,0c1.3,0.3,2.1,1.6,1.6,3c-0.3,0.8-1.1,1.2-1.9,1.2
				h-0.1C804.6,355.5,803.7,354.6,803.7,353.4L803.7,353.4z M804,380.5v-24h4v24H804z"/>
			<path fill="#97999B" d="M813,380.6v-23.1h5v10l8.2-10h4.6l-9.6,11.2l10,11.8h-5l-9.1-10.8v10.8L813,380.6z"/>
			<path fill="#97999B" d="M848.1,356.5h3.9v14c0,4,2.1,6,5.5,6s5.5-2,5.5-6v-14h4V371c0.2,2.6-0.8,5.1-2.7,6.9
				c-4,3.2-9.6,3.2-13.6,0c-1.9-1.8-2.9-4.3-2.7-6.9L848.1,356.5z M853.5,350.5c0.8,0.2,1.4,0.7,1.6,1.5c0.3,1.4-0.7,2.6-2,2.6
				c-1.1,0-2-0.9-2-2c0-1.1,0.9-2.1,2-2.1C853.2,350.5,853.3,350.5,853.5,350.5z M860.7,350.6c0.7,0.2,1.3,0.9,1.4,1.6
				c0.2,1.3-0.8,2.4-2.1,2.4l0,0l0,0c-1.2,0-2.1-0.9-2.1-2.1c0-1.1,0.9-2.1,2-2.1C860.2,350.5,860.5,350.5,860.7,350.6z"/>
			<path fill="#97999B" d="M872,380.5v-23.9l16,15.4v-14.5h4v23.9l-16-15.3v14.4H872z"/>
			<path fill="#97999B" d="M896.7,351.5c-0.1-1.1,0.8-2,1.9-2.1c0.2,0,0.3,0,0.5,0c1,0.2,1.7,1,1.7,2c0,1.1-0.9,2-2,2h-0.1
				C897.6,353.5,896.7,352.6,896.7,351.5L896.7,351.5z M897,380.5v-24h4v24H897z"/>
			<path fill="#97999B" d="M915.6,381l-11.3-24.5h4.5l6.8,15.3l6.8-15.3h4.5L915.6,381z"/>
			<path fill="#97999B" d="M931,380.5v-24h15v4h-11v6h10v3h-10v7h11v4H931z"/>
			<path fill="#97999B" d="M950,380.5v-24h9.3c2,0,4,0.7,5.5,2.1c1.5,1.4,2.3,3.4,2.2,5.4c0.1,3-1.7,5.7-4.4,6.8l5.8,9.6h-5.6
				l-4.9-8H954v8H950z M954.9,368.5h4.3c2,0,3.7-1.6,3.8-3.7v-0.4c0.2-1.9-1.2-3.7-3.2-3.9H955L954.9,368.5z"/>
			<path fill="#97999B" d="M970.7,373.3c2,2,4.7,3.1,7.6,3.1c2.8,0,4.5-1.3,4.5-2.9c0-0.9-0.4-1.8-1.1-2.3c-1.3-0.9-2.6-1.6-4.1-2.1
				c-4-1.7-6.2-3.6-6.2-6.9c-0.1-1.8,0.8-3.5,2.2-4.5c1.6-1.2,3.7-1.8,5.7-1.7c2-0.1,4,0.5,5.7,1.6v4.3c-1.5-1.4-3.5-2.1-5.6-2
				c-2.4,0-3.8,1-3.8,2.4c-0.1,0.8,0.6,1.5,1.1,2c0.5,0.4,1.1,0.7,1.7,0.9l1.1,0.5c0.5,0.2,0.9,0.4,1.1,0.5c1.8,0.7,3.5,1.8,4.9,3.1
				c2.2,2.7,1.9,6.7-0.7,9.1c-1.8,1.3-4,2-6.2,1.9c-2.8,0.1-5.5-0.8-7.8-2.4L970.7,373.3z"/>
			<path fill="#97999B" d="M991.9,355.5c-0.7,0-1.3-0.3-1.6-0.9c-1-1.6,0.1-3.4,1.7-3.4c0.2,0,0.3,0,0.5,0c1.2,0.2,2,1.4,1.7,2.6
				C993.9,354.8,993,355.5,991.9,355.5L991.9,355.5z M991,380.5v-24h4v24H991z"/>
			<path fill="#97999B" d="M1005,380.2v-19.7h-7v-4h17v4h-6v19.6L1005,380.2z"/>
			<path fill="#97999B" d="M1019,380.5v-24h14v4h-10v6h10v3h-10v7h11v4H1019z"/>
			<path fill="#97999B" d="M1036.7,373.3c2,2,4.7,3.1,7.6,3.1c2.8,0,4.5-1.3,4.5-2.9c0-0.9-0.4-1.8-1.1-2.3
				c-1.3-0.9-2.6-1.6-4.1-2.1c-4-1.7-6.2-3.6-6.2-6.9c-0.1-1.8,0.8-3.5,2.2-4.5c1.6-1.2,3.7-1.8,5.7-1.7c2-0.1,4,0.5,5.7,1.6v4.3
				c-1.5-1.4-3.5-2.1-5.6-2c-2.4,0-3.8,1-3.8,2.4c-0.1,0.8,0.6,1.5,1.1,2c0.5,0.4,1.1,0.7,1.7,0.9l1.1,0.5c0.5,0.2,0.9,0.4,1.1,0.5
				c1.8,0.7,3.5,1.8,4.9,3.1c2.2,2.7,1.9,6.7-0.7,9.1c-1.8,1.3-4,2-6.2,1.9c-2.8,0.1-5.5-0.8-7.8-2.4L1036.7,373.3z"/>
			<path fill="#97999B" d="M1056.5,351.5c-0.1-1.1,0.8-2,1.9-2.1c0.2,0,0.3,0,0.5,0c1,0.2,1.7,1,1.7,2c0,1.1-0.9,2-2,2h-0.1
				C1057.4,353.5,1056.5,352.6,1056.5,351.5L1056.5,351.5z M1057,380.5v-24h4v24H1057z"/>
		</g>
		<g id="Text_1955_001">
			<path fill="#97999B" d="M537,380.5v-54h-9v-10h21v64H537z"/>
			<path fill="#97999B" d="M567.8,380.5l14.4-21.4c-1.2,0.4-2.4,0.6-3.7,0.5c-5.3-0.1-10.5-2.2-14.3-5.9c-4.4-3.9-6.8-9.6-6.6-15.5
				c-0.1-6,2.4-11.8,6.8-15.9c9.1-8.7,23.5-8.8,32.7-0.1c6.9,6.7,8.6,17.1,4.2,25.7c-2.3,4.3-4.8,8.4-7.5,12.4l-13.3,20.2H567.8z
				 M592.7,337.5c0.1-3.2-1.2-6.3-3.6-8.4c-4.7-4.6-12.2-4.6-16.8,0c-2.2,2.2-3.5,5.2-3.5,8.4c-0.1,6.5,5.2,11.9,11.7,12h0.2
				C587.9,349.5,592.7,344.3,592.7,337.5z"/>
			<path fill="#97999B" d="M617.5,361.7c2.3,4.7,7.2,7.7,12.4,7.6c3.2,0,6.3-1.2,8.6-3.4c2.3-2.2,3.6-5.2,3.6-8.4
				c0.1-3.3-1.3-6.4-3.9-8.5c-2.7-2.2-6.1-3.4-9.6-3.3c-6.2,0-11.5,1.4-15.6,4.1l5.9-33.4H649v10h-21.7l-1.8,10.5
				c1.8-0.6,3.7-0.8,5.6-0.8c5.8-0.1,11.5,2.2,15.6,6.3c8.4,7.9,8.7,21.1,0.8,29.4c-0.4,0.4-0.7,0.7-1.1,1.1
				c-4.4,4.2-10.2,6.5-16.3,6.4c-9.3,0-17.6-5-21.5-12.5L617.5,361.7z"/>
			<path fill="#97999B" d="M667.6,361.8c2.3,4.7,7.2,7.7,12.4,7.6c3.2,0,6.3-1.2,8.6-3.4c2.3-2.1,3.6-5.2,3.6-8.3
				c0.1-3.3-1.3-6.4-3.9-8.5c-2.7-2.2-6.1-3.4-9.6-3.3c-6.2,0-11.5,1.4-15.6,4.1l5.7-33.5H699v10h-21.7l-1.8,10.5
				c1.8-0.6,3.7-0.8,5.6-0.8c5.8-0.1,11.5,2.2,15.6,6.3c4.2,3.9,6.5,9.3,6.5,15c0.1,5.9-2.4,11.5-6.8,15.5
				c-4.4,4.2-10.2,6.5-16.3,6.4c-9.3,0-17.6-5-21.5-12.5L667.6,361.8z"/>
		</g>
		<g id="Text_KTÜ_001">
			<path fill="#00426A" d="M528,290.5v-204h45v91.6l72.7-91.6h53.6l-81.5,100.1l84.7,103.9H648l-75-93.1v93.1H528z"/>
			<path fill="#00426A" d="M766,290.5v-163h-55v-41h155v41h-55v163H766z"/>
			<path fill="#00426A" d="M887,86.5h45v116.8c0,33.1,14.1,49.5,42.2,49.5s41.8-16.4,41.8-49.5V86.5h45V208
				c0,27.5-8.2,48.6-24.6,63.5s-37.3,22.3-62.2,22.3c-25.2,0-46.1-7.3-62.5-22c-16.4-14.9-24.6-36-24.6-63.8L887,86.5z M922.2,54
				c0-11.4,9.7-20.5,21.1-20.5c11.7,0,21.4,9.1,21.4,20.5c0,10.8-9.7,20.2-21.4,20.2C931.9,74.3,922.2,64.9,922.2,54z M983.1,54
				c0-11.4,9.7-20.5,21.4-20.5c11.4,0,21.1,9.1,21.1,20.5c0,10.8-9.7,20.2-21.1,20.2C992.8,74.3,983.1,64.9,983.1,54L983.1,54z"/>
		</g>
		<g id="KTÜ_Amblem_001">
			<path fill="#00426A" d="M475.1,238.5c0.1,95.3-56.7,181.5-144.2,219c-21.6,9.3-44.5,15.2-67.8,17.7V238.5h68v142.1
				c88-58.1,104.7-184,25.9-263.4C309.4,69.6,238,54.9,175.6,80C72,121.8,37.5,243.9,95.5,332.1c12.7,19.3,29.2,35.8,48.5,48.5
				V238.5h68v236.8c-23.4-2.5-46.2-8.5-67.8-17.7C44.5,414.8-20.1,305.8,5.7,185.7C25.4,94.1,97.8,23.2,189.7,5.2
				C341.8-24.5,475.1,91.3,475.1,238.5z"/>
			<circle fill="none" cx="238.1" cy="238.4" r="238.1"/>
		</g>
	</g>
</g>
</svg>
